
<global>
</global>

<group>
amp_veltrack=0
ampeg_decay=20
ampeg_sustain=0
group_label=Group_0-45
lpc_hicc1=42
lpc_locc1=0

<region>
hikey=G#2
hivel=127
lokey=G2
lovel=1
lpc=5A3xQvBJksOBfXhDP68Iw+hNwUIqwhbCx9clQUFumsHJREhBmYiAwNP3ukAJaEbA7L2MwDJLQEEtys7AFpx8v94KlsDwGB9BgMd3wcgOJUFJ7h+/zQWWQIVVNcG8JcpA
lpc_rms=-27.96
pitch_keycenter=G#2
sample=Contrabassoon_invertedturn_major_PP_G#3.opus
</region>

<region>
hikey=G#1
hivel=127
lokey=G1
lovel=1
lpc=QkjiQtPIgsNAdTVDIM92wlF0ZkL9TcvBsvRzQRJnBcJGi1NAvVmaQZhuIsHfxkdB0sp1wVTi+UCFbP0/rU0kwDOOBsG0qOFAF6UCwC4PYkAfUfbAfvVJQbf7JMFZwFxA
lpc_rms=-29.40
pitch_keycenter=G#1
sample=Contrabassoon_invertedturn_major_PP_G#2.opus
</region>

<region>
hikey=F#2
hivel=127
lokey=F2
lovel=1
lpc=mh1hQuuu5MJYrq5CcHeEwgUUS0ImDN3BQ5nkQXKrvsGfGK5BM76qwXKqmkEJ3a7BkY6zQfBYmcFO5plBHkKUwWXjTEFA+qXAXi0XQI7mAMEqujVB7qMxwaM7yECYDkC/
lpc_rms=-24.33
pitch_keycenter=F#2
sample=Contrabassoon_invertedturn_major_PP_F#3.opus
</region>

<region>
hikey=F#1
hivel=127
lokey=F1
lovel=1
lpc=6HEcQ8M4uMOYWoZDbtPjwt6b5kIz3kDC+HX8QDYmEMKTvTw/5EyHQXUVND90hHJBD4WUwIm+isEyK5BBfW/Jweg6kUEIe4vBqpeRQZPq9z9lmazA9vQyQb1p08EYk2JB
lpc_rms=-25.24
pitch_keycenter=F#1
sample=Contrabassoon_invertedturn_major_PP_F#2.opus
</region>

<region>
hikey=E2
hivel=127
lokey=D#2
lovel=1
lpc=XxzYQd9YVMLl6idCPeDowffuaEF2nqzAz1+cQAGQK7/AjvO878oWQP7KhsBoxCpACs3CvwObRUAa3FvA2I1aQF8J279PT3FAtRSwwM51YkCZzs7AK3aYQDWhP8A+tSRA
lpc_rms=-27.15
pitch_keycenter=E2
sample=Contrabassoon_invertedturn_major_PP_E3.opus
</region>

<region>
hikey=E1
hivel=127
lokey=D#1
lovel=1
lpc=C11+QuCxGsMSIRxD1p/8wg36xUIqz2TCqdwKQh963MG6DrJBJVytwU8VoEGyjTzBcYoWQf8g/sAtTMFAiVTQv5qatcBdwrNAotYmwJsIjj+Cgh6/JGOOv5uPVj9UV7M+
lpc_rms=-28.45
pitch_keycenter=E1
sample=Contrabassoon_invertedturn_major_PP_E2.opus
</region>

<region>
hikey=D#4
hivel=127
lokey=C#3
lovel=1
lpc=UZIFQrTofsIllEFC58UNwjxPwUG8eo3BVJ2dQRBzjMHtPo5Bmu5swSFFCEEsEivAZJCTP7C1Pz50DLe/jD6UQCr9ssDvcbVAd9ykwMltXb+anUi+MSeGPq46hj+dN3I/
lpc_rms=-25.84
pitch_keycenter=D3
sample=Contrabassoon_invertedturn_major_PP_D4.opus
tune=-43
</region>

<region>
hikey=D2
hivel=127
lokey=C#2
lovel=1
lpc=HoI2QrtMwMILmJ1CAKRcwibPB0K47IDBJG6WQQMzeMHc02lBWIZPwTTPBEFMIy7BCTN6Qes0dMFmD5FBfx22wU8OqUEJ8zzBN8zjQJo/JcELIK9ABxR5wE/QRUBus0w/
lpc_rms=-25.93
pitch_keycenter=D2
sample=Contrabassoon_invertedturn_major_PP_D3.opus
</region>

<region>
hikey=D1
hivel=127
lokey=C#1
lovel=1
lpc=1kGyQk0yU8OxFE1DkW4kw7ZG/kJOwoPCfscDQnwspMH3yw9BoDGbwIB/r0BQ2FvAUFX/QHZllr9h14+/YqjswEd70kCrx7zA6AhUQPoQhb+x1c881FNSQAre9cCUs6JA
lpc_rms=-25.78
pitch_keycenter=D1
sample=Contrabassoon_invertedturn_major_PP_D2.opus
</region>

<region>
hikey=C3
hivel=127
lokey=B2
lovel=1
lpc=RioAQupfhsKeOlNCFicQwkJH3EGbR4fB+vEnQQ/js7/X0s+/iXMfQJz0Vr/FS4Y/rRRNwBIA8j6NZiJAZxdWv0HdjsAeMJdADqkmwBn/Dj57PktAIogDwKnwkL9Ss4g/
lpc_rms=-32.04
pitch_keycenter=C3
sample=Contrabassoon_invertedturn_major_PP_C4.opus
</region>

<region>
hikey=C2
hivel=127
lokey=B1
lovel=1
lpc=NvtbQjXn7MJ6GL1CANV+wssFPkJXpObBjavQQd8SgcHCUOdAN7YBwMXZUEB4WgDBfHSvQFRFvr8VxQFBV/1twUAzLEEyT7vABdWJQKkbEMHFkQNBWqi8v99jDMAhSwZA
lpc_rms=-28.65
pitch_keycenter=C2
sample=Contrabassoon_invertedturn_major_PP_C3.opus
</region>

<region>
hivel=127
key=C1
lovel=1
lpc=LmfUQtffg8NtLZZDj4eMw49eXkMbahHDMDG5QmEsMsJABOVBRQbcwf2WoEFeP+vAL2dCwFp0ikHsIyHBhjqnwWE150GJwqXBvhaAQeh6KsEvWAc/FWsJQZ85XcGTnQFB
lpc_rms=-20.21
sample=Contrabassoon_invertedturn_major_PP_C2.opus
</region>

<region>
hikey=A#2
hivel=127
lokey=A2
lovel=1
lpc=BJL+QlzXlcPmroZDMvU/w5gdF0MNp47CtNUYQuliSsLesyhCkUIDwm231EEb8sLA28LcvxuWEkFjXr6/2TUrwTKArj9Rvu9AyHIwwd7fEUHvGYvA9FQLQIfBKMFkfhBB
lpc_rms=-26.55
pitch_keycenter=A#2
sample=Contrabassoon_invertedturn_major_PP_A#3.opus
</region>

<region>
hikey=A#1
hivel=127
lokey=A1
lovel=1
lpc=gK69QuwxWsMCsDhDvWXowhN2oELzyBnCBTUJQsBdJsJWWxhCHcG8wXrWUEEjaAvBZ6JwQBqY1L7q5kY/xQg2wPopXMBR4fhAGXiQwOnyjb/MFoxAmWMowO4ULsB3bFNA
lpc_rms=-27.80
pitch_keycenter=A#1
sample=Contrabassoon_invertedturn_major_PP_A#2.opus
</region>
</group>

<group>
amp_veltrack=0
ampeg_decay=20
ampeg_sustain=0
group_label=Group_46-90
lpc_hicc1=84
lpc_locc1=43

<region>
hikey=G#2
hivel=127
lokey=G2
lovel=1
lpc=QfXcQomgfcMLlC9Doyudwlhvr0LzF/nBZfQGQe+V+cHod7pAmDadwGzdcEHdbsg/uyk0Pd2/nL8Qf1Q8gWojwRFTKT/2MVhAP0uaQKQOpUC1mxXBJLmKQKthCcHGHsNA
lpc_rms=-24.83
pitch_keycenter=G#2
sample=Contrabassoon_invertedturn_major_MF_G#3.opus
</region>

<region>
hikey=G#1
hivel=127
lokey=G1
lovel=1
lpc=nmDsQkKBkcMWLW9DMhTxwkKbvEK3AtzBTXQAwaifeMGJA2VBh//nvyS+BcFK8WxBkm1twdjNXkGTdO/AAgdqQI2iWcExMoZBd/8nwWOxWkF29SvBBCiCQG+QCsGCS8ZA
lpc_rms=-26.38
pitch_keycenter=G#1
sample=Contrabassoon_invertedturn_major_MF_G#2.opus
</region>

<region>
hikey=F#2
hivel=127
lokey=F2
lovel=1
lpc=wPrAQsYXW8MC+0BDvhIGwxcUqUJuYSnCYvEbQpQkjsGoFE5BEI8pwWQCkMBhSjnAgiZAQRxWyr9qt4C/Yp4HwS/ytz9o+x9BPZBRwfTpnkBsexdAOUeDQB155cAW5B1A
lpc_rms=-20.21
pitch_keycenter=F#2
sample=Contrabassoon_invertedturn_major_MF_F#3.opus
</region>

<region>
hikey=F#1
hivel=127
lokey=F1
lovel=1
lpc=rAwmQ/M9y8OwNrJDz5Jgw9HDOkM0z9DCbQRxQhc5fcJiqEVCWPCcwSInlj5oKEdAKXUSwQohuT/gCCFBS8xnwH/HmsAYkKBAyEEswQ9gdkEHFkTBi2K3Qcv4/8HdkmZB
lpc_rms=-21.73
pitch_keycenter=F#1
sample=Contrabassoon_invertedturn_major_MF_F#2.opus
</region>

<region>
hikey=E2
hivel=127
lokey=D#2
lovel=1
lpc=alYaQo59psKdyZZCjjpnwo8KEUJR+bbBM6zRQSvSvsGt/LxBH7eMwVGIH0FDJv/AEPvQQMKENL+6NVm/oZcFwAjTOj9cQSxAhTrPwAnl7kDG9OnAnyRnQDsPZr/svY0/
lpc_rms=-24.34
pitch_keycenter=E2
sample=Contrabassoon_invertedturn_major_MF_E3.opus
</region>

<region>
hikey=E1
hivel=127
lokey=D#1
lovel=1
lpc=m4KeQrkTQ8PafEBDtEsWw5yM7ELw/n3CwNkMQsfYy8E1sV1B030Dwe1rnkBiru6/B9vwQHwdOMFs3ApBJ7JPwCW0GMBDI6I/ZXF5Pz+Frr/Vl5hAZPX6wPXEF0DEJ7s/
lpc_rms=-26.12
pitch_keycenter=E1
sample=Contrabassoon_invertedturn_major_MF_E2.opus
</region>

<region>
hikey=D#4
hivel=127
lokey=C#3
lovel=1
lpc=ZcoZQr3RmsLGf4VCoplSwsvkBUKWvr7B8MHRQXF3bsEVV4xASL4VQPrm68CgUiBB8wHJwLXxqUD0iIG/5ICAwN/AR0AWg37AcT4SQJPwo7+R79S/oQYHQA7aj7/IVuw/
lpc_rms=-23.56
pitch_keycenter=D3
sample=Contrabassoon_invertedturn_major_MF_D4.opus
tune=-47
</region>

<region>
hikey=D2
hivel=127
lokey=C#2
lovel=1
lpc=V6NwQpCwBcMgBuhCwYCmwpBCVkLVtrTBUFzOQRppxcHe1qFBbmKMwVmGOEEOej/BndVOQef0EcFT9t9AjqD8wIPetkAKDVVAwajMwG7mdUBJoObA1g9CvSfCxkAVMqG/
lpc_rms=-22.63
pitch_keycenter=D2
sample=Contrabassoon_invertedturn_major_MF_D3.opus
</region>

<region>
hikey=D1
hivel=127
lokey=C#1
lovel=1
lpc=MXrJQvGtdsM5DHBDqc86w2oUFkNgEqbCztRHQvn2EcJHtplBiB86wa919T0JIb5AuW+dQNUKtr8cHL7A0RC6QGrdWMFXF39BQjOUwdB3rEG/6mbBZr83Qa5WWsGz3tZA
lpc_rms=-24.18
pitch_keycenter=D1
sample=Contrabassoon_invertedturn_major_MF_D2.opus
</region>

<region>
hikey=C3
hivel=127
lokey=B2
lovel=1
lpc=6kkVQgeZnMK/UV9CpXDtweAGpEFoNiXBIFoSQQFfpcAlSYlA9vAewAHdEMC0R01AYChXwBTNI0Caspq/Fx4wPy9sa7/1qso+kmjrO3uPEj/ylxq/pSlsQLp5BcHU75dA
lpc_rms=-27.15
pitch_keycenter=C3
sample=Contrabassoon_invertedturn_major_MF_C4.opus
</region>

<region>
hikey=C2
hivel=127
lokey=B1
lovel=1
lpc=qr+CQnVBD8Mwf9lCumaFwqYaWkL2gOHBI+7WQVu13MG1j4BBz4SqwNRrwUA0vxnBvbBTQHq1w8BBpo1Bl+OAwbagjkAGXKO/OHEUQO2MGb9KcgtAMdyMwNhuML+qFDhA
lpc_rms=-24.28
pitch_keycenter=C2
sample=Contrabassoon_invertedturn_major_MF_C3.opus
</region>

<region>
hivel=127
key=C1
lovel=1
lpc=+m0aQ+x0v8PE3ctDXAG3w1NckEMUQwPD8S4rQsyamsHMjpZBR32swZr9KEHP0olALfk6waj1TkFnHiC/nTaMwfbAv0HV8X/BLtI8wbMw/EEKuwbCmEcIQqt10MHzShZB
lpc_rms=-20.10
sample=Contrabassoon_invertedturn_major_MF_C2.opus
</region>

<region>
hikey=A#2
hivel=127
lokey=A2
lovel=1
lpc=IEAiQ3X7ucPsIZJDueEvw/RFD0NANy/CZ/IwQZNW78G5dZpBhCtbwVj/XkG5WUPAeRQKwe2ZG0H0zf0+O0xQwQ1tIEFG2NU/NCqYP83AAsH65LNAmmyVv2G7AMEXxOxA
lpc_rms=-20.64
pitch_keycenter=A#2
sample=Contrabassoon_invertedturn_major_MF_A#3.opus
</region>

<region>
hikey=A#1
hivel=127
lokey=A1
lovel=1
lpc=Hx3tQkB9jMO2oW9DuLEfwyftBUM1V2fCE6DdQWh0JcLufhlCTuPywS8Yq0EADrrAq7wJwaMJj0CR88JAd1lmwTbZMUFyhE5AYFWjwBauMUAa6qjAIhV6QFfnlMAyoXFA
lpc_rms=-24.34
pitch_keycenter=A#1
sample=Contrabassoon_invertedturn_major_MF_A#2.opus
</region>
</group>

<group>
amp_veltrack=0
ampeg_decay=20
ampeg_sustain=0
group_label=Group_91-127
lpc_hicc1=127
lpc_locc1=85

<region>
hikey=G#2
hivel=127
lokey=G2
lovel=1
lpc=uTz9QoXSlcOGeVlDWUbFwjpfxUKW7gzCsX/eQZLsUMKBxyxBpXJ8wU3iwkEw1FhA2/LZwOnhxz+B56C+NlbvwI0ngz57LsxALn6mQInB8D7IJxvBD/VqwHItE0GdvRrA
lpc_rms=-21.98
pitch_keycenter=G#2
sample=Contrabassoon_invertedturn_major_FF_G#3.opus
</region>

<region>
hikey=G#1
hivel=127
lokey=G1
lovel=1
lpc=vrFlQl8Z9cJIF59CH00YwmMDFULjgJnB2LiXQS1sGsByDoXBymGBQEHpCMAmnsRATeCPvd4B3cCJ7jpBCZxcwUlnM0EBWaHAEKquP5hq8Lw0Lea/gHpuQAfhf8CzLtc/
lpc_rms=-22.70
pitch_keycenter=G#1
sample=Contrabassoon_invertedturn_major_FF_G#2.opus
</region>

<region>
hikey=F#2
hivel=127
lokey=F2
lovel=1
lpc=MN6WQmIxKsNIKgtDPqmuwmr0ZEJ2/6/BQSrEQYpJxMErmsRBRXamwWZlcD1cjJg/e3cGQWOfz8DpDvlA+L9kwW2su0D8/81AZPumwEKEdUCqITbBLYxIQf88isBpSAI9
lpc_rms=-19.15
pitch_keycenter=F#2
sample=Contrabassoon_invertedturn_major_FF_F#3.opus
</region>

<region>
hikey=F#1
hivel=127
lokey=F1
lovel=1
lpc=w4yzQrGrTcPPkydDpsLJwm0pkUJ5uhPCUsICQp5xYMEpBSTBkTNVQfLMXsHhMq9A9zsIQSl6m8FbgMBBMAjKwRqk1EH+ub7BUQFXQaUe38CM3JVApN2TP6QI6L9uuJ++
lpc_rms=-18.83
pitch_keycenter=F#1
sample=Contrabassoon_invertedturn_major_FF_F#2.opus
</region>

<region>
hikey=E2
hivel=127
lokey=D#2
lovel=1
lpc=1cIMQpAEnsJ4j5RCJwNkwlucE0Li8b7BweLcQdcwt8G3FJpBsVJwwfZN2kBbg6/AwZH4QEZDqcBRgJ5Azb/NwH8KVEDQFlo/m2NVwAEygD/q0Og/7e9twOEjQkDXx5m+
lpc_rms=-22.12
pitch_keycenter=E2
sample=Contrabassoon_invertedturn_major_FF_E3.opus
</region>

<region>
hikey=E1
hivel=127
lokey=D#1
lovel=1
lpc=9ylwQl35B8OxZe5CaBTAwoR4pUKLFF7ChUxeQv8jDsKUk4tB3hK3wYICP0GF38g+oYWDwNhXqEBJFzPA7w7GP8VS1L9aQMQ/123/v6ORoD+iqFg/A22zPnbyYcBMYA1A
lpc_rms=-22.67
pitch_keycenter=E1
sample=Contrabassoon_invertedturn_major_FF_E2.opus
</region>

<region>
hikey=D#4
hivel=127
lokey=C#3
lovel=1
lpc=alcfQlFtocKrFohCaBtIwjd88EF4EczBAXr2QYdwlsGTaEJB01epwPq+pL4stfa+9th4QHmJJsAxpolAIdb6wJ1WwkCPO1TA3dJhvnL8OcBy4VZAVePXv8qqgT5I+Nc/
lpc_rms=-22.50
pitch_keycenter=D3
sample=Contrabassoon_invertedturn_major_FF_D4.opus
tune=-55
</region>

<region>
hikey=D2
hivel=127
lokey=C#2
lovel=1
lpc=qH5JQmPk4sJ73MFC8Ip8wvt5BkLjRM7A6RdnQfCSYMEUvpBA8IpowOzrkED2FBPBP5gOQcHH0MCTvM1Aj/NUwKaupD9S7lw+URJHwGT9JECgoPu/RMAIQD6vEcABm9U/
lpc_rms=-19.08
pitch_keycenter=D2
sample=Contrabassoon_invertedturn_major_FF_D3.opus
</region>

<region>
hikey=D1
hivel=127
lokey=C#1
lovel=1
lpc=nfGEQiE8F8NcxwZDLZvBwtQgc0IdJPbBBkjvQTd8uECGGNPBXHN9QdEFs8FB25hBhEYKwW8Yh0BJ1GFAq9QewGVJr77C5PS+hEWRwI1HFUAeE6pAJcQDweVb1UDodQXA
lpc_rms=-20.91
pitch_keycenter=D1
sample=Contrabassoon_invertedturn_major_FF_D2.opus
</region>

<region>
hikey=C3
hivel=127
lokey=B2
lovel=1
lpc=bywGQnVyiMLzEE1Clc8KwgBu10Hp4JzB5ZiaQQY8P8FhKthAHUKXv/JKLsA+UIRA3fq/wAFzZkCeT2u+NB6gvXJIrb8MXQBAPTPuPSd0JcCsY9o/oDDdPR9IKcBqlQlA
lpc_rms=-23.30
pitch_keycenter=C3
sample=Contrabassoon_invertedturn_major_FF_C4.opus
</region>

<region>
hikey=C2
hivel=127
lokey=B1
lovel=1
lpc=DCJPQkq67sL7WMdCFul6wipdS0KJyQvCV4b1QbmnpMGBQydBEJSXwFToicB85mNAXIxLwEGPzECMzeS/ypHIv+8lIz9FHCLA20puQFKT47+ANwlA9el2wMIpPT510OI/
lpc_rms=-19.87
pitch_keycenter=C2
sample=Contrabassoon_invertedturn_major_FF_C3.opus
</region>

<region>
hivel=127
key=C1
lovel=1
lpc=GpjSQh4pcsO0UlpD7Ocow+0UA0OsfZbCGgdbQjs1BkCSDDHC67AEQuq48sFaL9RBihYxwSw+9MBqWsRB8LvowWmww0HPMmbBYJD8P+qdo0AaAgfBvHANQYEeJcFapM5A
lpc_rms=-16.80
sample=Contrabassoon_invertedturn_major_FF_C2.opus
</region>

<region>
hikey=A#2
hivel=127
lokey=A2
lovel=1
lpc=K2gNQ7lvssPtlJ5DAyg4w46zDUMnSnXCynSaQSTt7MGn1K5By5CGwdF8I0GY4vG/lhMLwVc6D0HeWTBAT8+xwM0mi0DXZCk/2I0CQPSZC8H8hJZATaOCwWXI00HULC3B
lpc_rms=-17.82
pitch_keycenter=A#2
sample=Contrabassoon_invertedturn_major_FF_A#3.opus
</region>

<region>
hikey=A#1
hivel=127
lokey=A1
lovel=1
lpc=EOR0QnRiAsPx079CWRl8wiPBaUL+RhvCyt4OQqCbmMG0fDlAuoqNwLFSYkAbqg7BXEZOQaRxCMFp7apA6ziOwMgqE0HQukPBSPXWQDTgW8AIE3RA+huzwLAlh0DyoL6+
lpc_rms=-20.57
pitch_keycenter=A#1
sample=Contrabassoon_invertedturn_major_FF_A#2.opus
</region>
</group>

<group>
amp_veltrack=0
ampeg_attack=2
ampeg_release=0.35
group_label=PP
lpc_hicc1=42
lpc_locc1=0
volume=-3

<region>
hivel=127
key=A#1
loop_end=257062
loop_mode=loop_continuous
loop_start=83562
loop_xfade=21023
lovel=0
lpc=3rlCQ9HV28NOxIBDKyuRwrg2RUNpsDLDcACnQkgnj8KIwc9BeMwJwliWWUJ6dc5B0HmzwU9jBsJa35HBonYiQiiLScFuI6Y+CQMZQe/5CEH/C97BhSaDQYm+Sr+U8My/
lpc_rms=-30.70
sample=Contrabassoon_sustain_PP_A#2.opus
</region>

<region>
hivel=127
key=A#2
loop_end=240343
loop_mode=loop_continuous
loop_start=78127
loop_xfade=19656
lovel=0
lpc=TZ3SQ3SrfMTOTwtEAWwkQt9caUMjokjDVb1YQTzhFMPJgphCRpn3whWEM0PSTElBly4zQoeO38JcOzDC5sG+QlQ/z8J/H61CwSWwQfgO3sHE4RHCsSyVQZwxP0E3QLfA
lpc_rms=-26.60
sample=Contrabassoon_sustain_PP_A#3.opus
</region>

<region>
hivel=127
key=A1
loop_end=255665
loop_mode=loop_continuous
loop_start=83108
loop_xfade=20909
lovel=0
lpc=aHeKQ/zAIcQpy7VDIdEYwk/cbkMMhVTDyIrpQQf9iME9qF7BJDSuwPkF00FY745BVKFKwWHUMb/JM17BsWS7Qcv+usFQ8qrBVeolQnHoj0A11NfAx5ZCwc9hmMCn0wVB
lpc_rms=-32.23
sample=Contrabassoon_sustain_PP_A2.opus
</region>

<region>
hivel=127
key=A2
loop_end=246174
loop_mode=loop_continuous
loop_start=80023
loop_xfade=20133
lovel=0
lpc=t/KOQ26jFcSpr0xDFP+HQkiAWUOeZAzDmSn3v99ATsJY80zBVW7zwSgkS0KtWDxC0BmBwXht6cF0x0BB34FZwQwUYr9R8apBi2kOQYo/K8KybbRBop2SwRjhBULnInPB
lpc_rms=-31.11
sample=Contrabassoon_sustain_PP_A3.opus
</region>

<region>
hivel=127
key=B1
loop_end=253736
loop_mode=loop_continuous
loop_start=82481
loop_xfade=20751
lovel=0
lpc=dRNOQzKY6sO131lDhtFdQpw8G0OLiUPD/ka4QX1QIcIs7kpCTdEhwgPqrEIyM5bB8MsWwYTnasKGz9BAVlAQQsprsD/LXTVBKkCDwKjBpcGlcUbBUqKFQZYoc0GFJkDB
lpc_rms=-31.72
sample=Contrabassoon_sustain_PP_B2.opus
</region>

<region>
hivel=127
key=B2
loop_end=252033
loop_mode=loop_continuous
loop_start=81927
loop_xfade=20612
lovel=0
lpc=TrObQ25nRsRwrfxDJGEtQncJw0J0qSfD+qxFwZwFM8KlaM1BzoO4QSY3DEItcsBBqDMdws3ag8EOg19AZmJdwevgf0H5cYJAgBhGQbhj7MAmjyXB2GydQCaSgcAYM3BA
lpc_rms=-30.75
sample=Contrabassoon_sustain_PP_B3.opus
</region>

<region>
hivel=127
key=C#1
loop_end=264349
loop_mode=loop_continuous
loop_start=85931
loop_xfade=21619
lovel=0
lpc=0XMORIPCpsQptkhEU/7owvattENcVHzDRNEPwq44fsK5NBNCdObTQLsQP0IW505CpdXmwWse3cLW/ijBaMPmQisEaT7VspbC2OUAQoJUR0KbBAjCIjNxwbGYCcIRPRZC
lpc_rms=-26.39
sample=Contrabassoon_sustain_PP_C#2.opus
</region>

<region>
hivel=127
key=C#2
loop_end=256542
loop_mode=loop_continuous
loop_start=83393
loop_xfade=20980
lovel=0
lpc=BlWDQ0XjF8Sz8rFDHef9wQJuD0OGASLDUQ/YQtOm78KIfvJBiKhFwbVBjELO2VRBx4Wtwbq4ncJQeSFCeaLPvx0SjECanTU/GjzGQbT0Q0E4WoXBVr1xwg61aULOHTXB
lpc_rms=-29.56
sample=Contrabassoon_sustain_PP_C#3.opus
</region>

<region>
hivel=127
key=C#3
loop_end=247199
loop_mode=loop_continuous
loop_start=80356
loop_xfade=20216
lovel=0
lpc=pwiyQttzS8NcbwxDo6iSwvogvkLwHQbCmKqrwN2nu8GQ8IVBDS2hwWyWx0Gql0S96MrIv4OJ7sAdsnHA1M8LQaZ7F8HsmRRAl9/CQGIGMEFtZ03B0HQ3vysICsCm0UhA
lpc_rms=-36.56
sample=Contrabassoon_sustain_PP_C#4.opus
tune=+96
</region>

<region>
hivel=127
key=C1
loop_end=264511
loop_mode=loop_continuous
loop_start=85983
loop_xfade=21632
lovel=0
lpc=TJnsQ6gyoMRItYJE0K94w8OdiEO/Or3Dxbc+Q4VpHcNJ+irCrWwXQ5tqBEKm3tFBI9GSwlDllsInZx1Cn6WbQa//zkH5dllAJQhFwjkOVEKGHAzCG6QNQol9gcLU7xZC
lpc_rms=-24.30
sample=Contrabassoon_sustain_PP_C2.opus
</region>

<region>
hivel=127
key=C2
loop_end=255028
loop_mode=loop_continuous
loop_start=82901
loop_xfade=20857
lovel=0
lpc=U0IzQ1vVvcMURStD17wjwgWZQUO9zN7CpN/0QTlFdMILsY/BmlOkQHGeGEKj0yFCwfFKwqCo28AZHXhBmF4DwQXwGcGohWC/V7OxQa/ysEBuH6XAkwJ5wTWZ2L5w9+ZA
lpc_rms=-34.38
sample=Contrabassoon_sustain_PP_C3.opus
</region>

<region>
hivel=127
key=C3
loop_end=252798
loop_mode=loop_continuous
loop_start=82176
loop_xfade=20674
lovel=0
lpc=MSPOQpmFZ8Oj5AlDBIQ3wru8uEKX2CHCWeiSv7GlGMITEeJBPqUCwsW6yEH1u9ZBc284wWwS2sCdk6zBsZ5QQbRTIsD5umFAPLINQVrNH0BIJSDAdgXywG5GIMEoujNB
lpc_rms=-36.31
sample=Contrabassoon_sustain_PP_C4.opus
</region>

<region>
hivel=127
key=D#1
loop_end=257352
loop_mode=loop_continuous
loop_start=83656
loop_xfade=21047
lovel=0
lpc=qSyRQ5lKKcQJOeZDgJJfw1fbtEMYu3TDv4i+QrJ48cIW6OZBXv1WQSBMAkKTKhJCYJzZwbvdFcKfqmrCshTYQrxhw8EIDBrCeyOWQFrJC0Jen+VBFg5jwtdxYD94LlZB
lpc_rms=-26.89
sample=Contrabassoon_sustain_PP_D#2.opus
</region>

<region>
hivel=127
key=D#2
loop_end=255045
loop_mode=loop_continuous
loop_start=82907
loop_xfade=20858
lovel=0
lpc=mV3qQsVbccMfwKZCdN18QZ6v4UIOlpvCqJ8yQL6Q0MEKcwHBuCLBwHqBCkJpwfFBINivwfD7O8J/q+dB11KjwLW3oEEKDX/BHEzCQNCLKUHSi1vBWQpswaMgpUEPNp7A
lpc_rms=-36.38
sample=Contrabassoon_sustain_PP_D#3.opus
</region>

<region>
hivel=127
key=D1
loop_end=257613
loop_mode=loop_continuous
loop_start=83741
loop_xfade=21068
lovel=0
lpc=fhuBQwCxI8SryQZEBjyEw3MIlENnAF7DvYqaQiJDXsL+8LLAMyXZQcLxi0HNmINBhvKWweSi7cH2v6tAOx81Qk8nBcJsiOjBoBm7QXYw7UHsCUA/23sAwm3EjMDV9WBB
lpc_rms=-29.45
sample=Contrabassoon_sustain_PP_D2.opus
</region>

<region>
hivel=127
key=D2
loop_end=259863
loop_mode=loop_continuous
loop_start=84473
loop_xfade=21252
lovel=0
lpc=QRCEQzEZH8TKJ+dD5GtSwyRKh0P0xyHDrT3BQnhl6sKTfmvBiqz8P44daEKFAzdCet0UwrAFTcJFySpB3I9bQVYY7b9KdpJBIQK9v4p1TkHI0szBHRDewNle/j57UCZB
lpc_rms=-29.19
sample=Contrabassoon_sustain_PP_D3.opus
</region>

<region>
hikey=D#4
hivel=127
lokey=D3
loop_end=250732
loop_mode=loop_continuous
loop_start=81504
loop_xfade=20505
lovel=0
lpc=3ppmQysOFcQ4fwxEvPqow4tJUENEQCfC2RhaQYFyfcKHnLZB4Y1QwuD4iEKcBqvAb3cjQg9Yg8If7I1B93tdwTFqbUBH1LzBzUN6QiHcn8E/RJJAlEL4wZkZXEHogilA
lpc_rms=-28.01
pitch_keycenter=D3
sample=Contrabassoon_sustain_PP_D4.opus
tune=-1
</region>

<region>
hivel=127
key=E1
loop_end=262969
loop_mode=loop_continuous
loop_start=85482
loop_xfade=21506
lovel=0
lpc=XWtoQ7uECcQAkb9DA6M0w3cqhUNb4A/DtzSsQRQhLML1DwXCAFWeQVMiIEJ5S2ZBoOtgwdYuncCZOhDAgozYwN0TdcGwmY1AOxP7P4hX2kECjvDAuOUOQF8e9sHapZlB
lpc_rms=-32.21
sample=Contrabassoon_sustain_PP_E2.opus
</region>

<region>
hivel=127
key=E2
loop_end=253299
loop_mode=loop_continuous
loop_start=82339
loop_xfade=20715
lovel=0
lpc=sRUuQ6CN18M8j6pD1rEAw+1I4kJYc93C1jHAQqdRl8LsPghALx2LwEZsQkLY1Xg+7LdWwXhc98HDv5JBeHP/wFD/hEBJdlFAj+7kQX96msECTJrBnpcCQVteJL+qtJhA
lpc_rms=-31.09
sample=Contrabassoon_sustain_PP_E3.opus
</region>

<region>
hivel=127
key=F#1
loop_end=255861
loop_mode=loop_continuous
loop_start=83172
loop_xfade=20925
lovel=0
lpc=aUukQ1oQW8RR6C9EAesGw5zd90K2g2vD6Y6oQlZGzsDeshc+0EAMQHYp20Go7+9BYKLdweOTbcLXEKZBZu/xQRVMLcHh9xJBlKUMwRYoRUG7mKzBIOV/QeY8o8G8AV1B
lpc_rms=-29.69
sample=Contrabassoon_sustain_PP_F#2.opus
</region>

<region>
hivel=127
key=F#2
loop_end=254287
loop_mode=loop_continuous
loop_start=82660
loop_xfade=20796
lovel=0
lpc=KV3EQ0t5Z8Tq+uNDgegEQwy1OkO/22XDmZ2LwWizlsIhGR9CtDPcQci+SUKebyZBdQIXwppeZMIsrlpChZOgQPy3nsHTLhjCmZp+Qv2FrkFGRSHCKnexwe7u2UGMDZfA
lpc_rms=-28.71
sample=Contrabassoon_sustain_PP_F#3.opus
</region>

<region>
hivel=127
key=F1
loop_end=256981
loop_mode=loop_continuous
loop_start=83536
loop_xfade=21016
lovel=0
lpc=cXCwQ/ZDTcSZi+RDVJRVwQMdY0PJ8GXDXu9aQnjXrsGrph/CVIQmwiZIg0JiJZFC0t4HwvGwVMGs1lTB7LzpwaZGvUH8m6/BLacTQnYiCUEVc6fBu/ZnQTbCAcJHepxB
lpc_rms=-30.13
sample=Contrabassoon_sustain_PP_F2.opus
</region>

<region>
hivel=127
key=F2
loop_end=258534
loop_mode=loop_continuous
loop_start=84041
loop_xfade=21143
lovel=0
lpc=rz75Qq3FksPtAzNDqEQKwdtQZELTZ6DC5yo0Qqe7X8JUYQFCoebEwMFEu0HSaWVA79PAwYHeeMGxnnJBUjwDQWYTDsF5bBBBzbLJQAs8EMHpcQHBxObEP34b8UDxkBvA
lpc_rms=-35.97
sample=Contrabassoon_sustain_PP_F3.opus
</region>

<region>
hivel=127
key=G#1
loop_end=265860
loop_mode=loop_continuous
loop_start=86422
loop_xfade=21743
lovel=0
lpc=S+xHQ01uBMQ6l9FDqo+owinMtUItkQfD0gETQgiIi8FB5KhApga2PyV8DkKEVWdBUQTWwXW52cFyMdy/ZBVoQTW53UCuV91A93rPPy5xQsHlVmvAcFxUwPJIY0EBJ7HA
lpc_rms=-33.63
sample=Contrabassoon_sustain_PP_G#2.opus
</region>

<region>
hivel=127
key=G#2
loop_end=255108
loop_mode=loop_continuous
loop_start=82927
loop_xfade=20863
lovel=0
lpc=XqeaQxFDPcSXeOxDACCSwqmlc0M+fRXDMRQjwngqPMLwL5dBNTljwt2ZkEL/qodCC0eYwK71hsJaBADAh1+EwV2FbUHWSXJB383ZQaGkz8DPovDBYcYGQNzPjUAZa1NA
lpc_rms=-29.72
sample=Contrabassoon_sustain_PP_G#3.opus
</region>

<region>
hivel=127
key=G1
loop_end=254389
loop_mode=loop_continuous
loop_start=82693
loop_xfade=20804
lovel=0
lpc=xF9NQ6JhDsTgaQNEJ9Y2w1RitkKZG/bChymBQo3zE8KOFxtCUlDVwV9S/0H9jR9Bjzgnwjfv0T+HmYBA7M3CQUrtasExuYrAnYZsPwodTcC59BlAA8h9QaMTt8FN9xtB
lpc_rms=-31.29
sample=Contrabassoon_sustain_PP_G2.opus
</region>

<region>
hivel=127
key=G2
loop_end=264684
loop_mode=loop_continuous
loop_start=86040
loop_xfade=21646
lovel=0
lpc=xBKIQyj4McQmdhBErvNBw8puQ0PCGzbDTcdgQlUhecHGGozBYn1cwQ5HbkLsDRhBybkSwmLrNsLnn5VCdxoNwrfCmsFTZ25C5k0IwvOZgUGcIebBkn5AQZ1sOsDF65dA
lpc_rms=-29.54
sample=Contrabassoon_sustain_PP_G3.opus
</region>
</group>

<group>
amp_veltrack=0
ampeg_attack=2
ampeg_release=0.35
group_label=MF
lpc_hicc1=84
lpc_locc1=43
volume=-3

<region>
hivel=127
key=A#1
loop_end=256676
loop_mode=loop_continuous
loop_start=83437
loop_xfade=20991
lovel=0
lpc=t1sHQzXzqsNi6IxDuQ/9wvwp+ELt283CQY2IQnuZnsLpjnJCg1bSwWcl6UALhB4+gTpaQUkLp8HO7+xAenAZwMLDm8BEqNq/s0hkQWmkiEDYswnBsqoMQfWdwMGmt2RB
lpc_rms=-23.59
sample=Contrabassoon_sustain_MF_A#2.opus
</region>

<region>
hivel=127
key=A#2
loop_end=253789
loop_mode=loop_continuous
loop_start=82498
loop_xfade=20755
lovel=0
lpc=ybeJQ2lrIMQ6xr1D6sQYwjUW5UL49r3B39hWwvKdS8Iq3DlAQtodQRGzeEJnqjbA29zHwfAPr8E7BTVBn3yDwcWSC8AjbkZBP+VIQnd/7sG4Jig/ADJTwt6RVUIXe0XB
lpc_rms=-20.11
sample=Contrabassoon_sustain_MF_A#3.opus
</region>

<region>
hivel=127
key=A1
loop_end=260725
loop_mode=loop_continuous
loop_start=84753
loop_xfade=21323
lovel=0
lpc=Lh/pQiQvicPDgEJDJ8mUwmWmq0IaYGzC27JUQmAem8IwjSxCVQ2Xwcv2r0GCcY7B5UexQcbsm8HWKq9AVLubwD5EKsBfEjhBDfwiwX6bbUFrg6bAmDk4wLfnG8G46ApB
lpc_rms=-24.48
sample=Contrabassoon_sustain_MF_A2.opus
</region>

<region>
hivel=127
key=A2
loop_end=246759
loop_mode=loop_continuous
loop_start=80213
loop_xfade=20180
lovel=0
lpc=HbUnQ5y2ycNVDZFDytC6wn57rUIpMM/BPe0jwRKGFsIBcM5B4HebwV3FK0LeMNnASG9ZwXWlRMGNuSZB1YxNwf6eFT+p5bRBWeItwNhThsBbyKfAYFKsvhVbZ8Cd/qpA
lpc_rms=-22.52
sample=Contrabassoon_sustain_MF_A3.opus
</region>

<region>
hivel=127
key=B1
loop_end=250847
loop_mode=loop_continuous
loop_start=81542
loop_xfade=20515
lovel=0
lpc=YAYVQ+8nusM/44pDm+mdwmuxx0JyktXCOy18QkWOd8LSowRCVypqQNFvf8Ho68dBcvTXwZViwkE8Lgy9TfRMwlReLUIYl3u/txScQVjZpsH0jrfB9prYQUpor8BTByi/
lpc_rms=-23.04
sample=Contrabassoon_sustain_MF_B2.opus
</region>

<region>
hivel=127
key=B2
loop_end=250627
loop_mode=loop_continuous
loop_start=81470
loop_xfade=20497
lovel=0
lpc=BpDAQtdNRcOZH8RCFLcHwta9n0JfiDnCKsLfQVxHAMLfgwJBDlKSwadIR0E1qk9ButYYQacZFsGmfRTBN2eLwE8fVsGBT3lBXbcqQUP8TUARJyfB6VgAQCBIscA4BHZA
lpc_rms=-28.47
sample=Contrabassoon_sustain_MF_B3.opus
</region>

<region>
hivel=127
key=C#1
loop_end=249923
loop_mode=loop_continuous
loop_start=81241
loop_xfade=20439
lovel=0
lpc=xrBVQ3jX8MNXZqdDPy1Cw6mijUN1dFrDviHLQiLzfMLh2gpCYu+CQZklZsJ31hpC7oagv/uzJkArh05AwE4/wkmQGkI22+fAWIsnQTQo/UCuoF3Bw003Pns4NcERHjNB
lpc_rms=-20.03
sample=Contrabassoon_sustain_MF_C#2.opus
</region>

<region>
hivel=127
key=C#2
loop_end=259314
loop_mode=loop_continuous
loop_start=84294
loop_xfade=21207
lovel=0
lpc=wWQ2Q/mM7sO7idpDXG97wz9iS0MInsDCgt79QaszpMJvO4xCIHBiwfgkrcEUAwJCmxNWQSIJJ8I5scs9IL9OQavmBsFDrpRB3NmIwS9jIEI8kSvCcFOMQVAnkMEqaj9B
lpc_rms=-20.54
sample=Contrabassoon_sustain_MF_C#3.opus
</region>

<region>
hivel=127
key=C#3
loop_end=254922
loop_mode=loop_continuous
loop_start=82867
loop_xfade=20848
lovel=0
lpc=ytLkQm3thcPJP0pDhRHfwjs6xULMFbHB2YuWQdy2J8I0phtBSchnwdc9zz9cMrJBB3eGPEYxgsFjx49BOMTVwaYzl0FCMR3B5ODuQLTHUUGbN4XBwLq4QCz5HMF83dVA
lpc_rms=-24.97
sample=Contrabassoon_sustain_MF_C#4.opus
tune=-1
</region>

<region>
hivel=127
key=C1
loop_end=259828
loop_mode=loop_continuous
loop_start=84461
loop_xfade=21249
lovel=0
lpc=0ceMQ0aCK8QXw/5DwY0rwxDiPEPK/ybD7+S7QsY54cJFtaVCZug2QTzGb8K6R6xBHl63Qf0H7kA/rOjA+KRowiTKQ0J7P6nBTmNBQnbC4MHkk7LBLIFOQXbsmUBbJQ89
lpc_rms=-17.34
sample=Contrabassoon_sustain_MF_C2.opus
</region>

<region>
hivel=127
key=C2
loop_end=271120
loop_mode=loop_continuous
loop_start=88132
loop_xfade=22173
lovel=0
lpc=9s7gQhczjMMVCWBDjLXDwgL5vUIGII3CFRV3QvRarsKtnGxCTML7wfPgzUFw0kfBXK6sQNw+4r+LQCzAFFpuvGjsPsHTQd1BBhC2wWV7vkH/7MzBLN6IQSc5XsFBDuJA
lpc_rms=-26.46
sample=Contrabassoon_sustain_MF_C3.opus
</region>

<region>
hivel=127
key=C3
loop_end=253994
loop_mode=loop_continuous
loop_start=82565
loop_xfade=20772
lovel=0
lpc=blR8QqswAcP07YlClv/WwUQCE0IKraY/1FHHPiBaj8HIz7q+PV+awF0hEUFrdDlAloBUP4nlV8BEUILAe0xsP9KLyD+poVVA+E8xQCCq4b9xymzAoX3av+F987/0koJA
lpc_rms=-31.42
sample=Contrabassoon_sustain_MF_C4.opus
</region>

<region>
hivel=127
key=D#1
loop_end=265098
loop_mode=loop_continuous
loop_start=86174
loop_xfade=21680
lovel=0
lpc=kLhwQ+8fGsR+AfRDF28yw/bdfUOsdp3DhhxDQ3sN+sKX+aVCL70Nwu4+sT/UVkhCL9VtwrAtIEGODwNBdNX1QW5jiMKvpBtC4JXOQGbwZEEpWkPCZuzhQY6Ulj+10yrA
lpc_rms=-21.62
sample=Contrabassoon_sustain_MF_D#2.opus
</region>

<region>
hivel=127
key=D#2
loop_end=258003
loop_mode=loop_continuous
loop_start=83868
loop_xfade=21100
lovel=0
lpc=T+9wQjseFcOxj/pC5xhewu019kG9T1DBOu3DQWfJQsLXzAdCYm6HwcdEr0HcFmPBty3BQCzPTMGpbF5B3il9wQwfTEEaU5jAkDmeQINOAsDUGq8/o9yfwJ0A0z92KX4/
lpc_rms=-28.84
sample=Contrabassoon_sustain_MF_D#3.opus
</region>

<region>
hivel=127
key=D1
loop_end=262500
loop_mode=loop_continuous
loop_start=85330
loop_xfade=21468
lovel=0
lpc=RGtXQ3jcEsSd+wZE941awzii8kJIbtvCIfWzQgDQCsN4fBdD5im7wkHZXkJM5hrC4RLQQcQFR8FpYhxBjTrqwU4WPEDo3B9CAl/lwbMenUFoNQ3CicLEQQI1bcATYMq9
lpc_rms=-22.25
sample=Contrabassoon_sustain_MF_D2.opus
</region>

<region>
hivel=127
key=D2
loop_end=258301
loop_mode=loop_continuous
loop_start=83965
loop_xfade=21124
lovel=0
lpc=JFTMQhQ/f8MHq2NDdEICw7pxx0JbH2vCDYAaQs9nKcKDZ31B6kPqQHqsVcFKB9xBprPBwSKex0DBjCE/ZHhRQGGw5sAs7KW/DDGqP0zaQEHuMoXBcCkxQRRR7sDsB4JA
lpc_rms=-24.98
sample=Contrabassoon_sustain_MF_D3.opus
</region>

<region>
hikey=D#4
hivel=127
lokey=D3
loop_end=256962
loop_mode=loop_continuous
loop_start=83530
loop_xfade=21015
lovel=0
lpc=cR00Q6JN1MPXP7RDBkR5w5rKUEONOZ7CZJWEQrADrMLvtJ1BSZj3wY9UI0KoVF7ANoTKQbYPDMJvrb1BThQOwghqeEBHCjpBhI2qP61yCUL3ZSzC7ogIQicKScIDTd9B
lpc_rms=-22.43
pitch_keycenter=D3
sample=Contrabassoon_sustain_MF_D4.opus
tune=-1
</region>

<region>
hivel=127
key=E1
loop_end=255333
loop_mode=loop_continuous
loop_start=83000
loop_xfade=20882
lovel=0
lpc=MKUdQ9N7x8PZLqlDC788wy/eUkM7TSPD/06QQtchecILHCBChzOnQDKy08EkWvRBDX2fQMwcF8KFj/JB9auuwUIa0j+lFllAdkokQOPIx0FOmyjCMwXfQQhQQ8FHelpA
lpc_rms=-25.74
sample=Contrabassoon_sustain_MF_E2.opus
</region>

<region>
hivel=127
key=E2
loop_end=256390
loop_mode=loop_continuous
loop_start=83344
loop_xfade=20968
lovel=0
lpc=Gu7OQm7Ve8OBkUxD4ZfXwmBg0EIWPo/CHUZCQkXULMKAUGhBKoEWwecnt0CDrERBl8a7P5+E4cFt8AdC1NUMwqSKyUGHQp/AwanLwNmZpEFZnaHBLQLqQMlbLcEiHwZB
lpc_rms=-23.95
sample=Contrabassoon_sustain_MF_E3.opus
</region>

<region>
hivel=127
key=F#1
loop_end=264133
loop_mode=loop_continuous
loop_start=85861
loop_xfade=21601
lovel=0
lpc=OYtvQypAGMSrtQFEAv2PwxOdmEMdcG3DGYAVQ7xmBcNe+UhC+vrBQfkYQ8LENnBCje8kwjQCTkG+sktBCt/Cwd//1EC/USbBmaWQQcKcGkFf/7vB+NwNQZZOKL8tjkM/
lpc_rms=-22.48
sample=Contrabassoon_sustain_MF_F#2.opus
</region>

<region>
hivel=127
key=F#2
loop_end=276913
loop_mode=loop_continuous
loop_start=90015
loop_xfade=22646
lovel=0
lpc=E1WPQ/TPO8SYzCBEALSZw1H4kENQhjrDqBSgQjJGocL0v5nBkXMwQoEbh8EKXZ5C455vwrELf8G/OQNBJ59nwFD068CX5hFCwCZDwWzogUGHR13Cbx4/QhzkmMGSBn1A
lpc_rms=-21.05
sample=Contrabassoon_sustain_MF_F#3.opus
</region>

<region>
hivel=127
key=F1
loop_end=261676
loop_mode=loop_continuous
loop_start=85062
loop_xfade=21400
lovel=0
lpc=Sl9pQ9dsE8QzhOpDa9BCw8P4XEMqtkXDj5rYQvCew8IDK15CSsXWP5L6iMD+cRNBvc0AwmPI60E0lirBzXfMQKVpsMGjBpBBkbOnwFvPyz/7ybk/pqL5QG/iOsFEWm9A
lpc_rms=-21.05
sample=Contrabassoon_sustain_MF_F2.opus
</region>

<region>
hivel=127
key=F2
loop_end=253163
loop_mode=loop_continuous
loop_start=82295
loop_xfade=20704
lovel=0
lpc=ZQimQuxcO8PC5glD84S6wvWD9EK0zqbCfElaQluqkMKh1VtCGwXiwXee5UEbg1PB46nEvvT8JsESXIZA3zqkQE+AB8FbIYJBZEqGwfhNcUFAoTzBqEjgQHFm4sAahoVA
lpc_rms=-28.56
sample=Contrabassoon_sustain_MF_F3.opus
</region>

<region>
hivel=127
key=G#1
loop_end=272053
loop_mode=loop_continuous
loop_start=88435
loop_xfade=22249
lovel=0
lpc=Nq4mQwTDzcMJg4xDC2NewiouD0NbATLDxE6QQtI+UcIWBBRCfOVWQGJeVMCorY9BkLAKwuVng0GTQgTAZNUqwYzVCUHiBDZBRpj9v57KY8B4XIjBxrlTQTmpTEARcETA
lpc_rms=-27.05
sample=Contrabassoon_sustain_MF_G#2.opus
</region>

<region>
hivel=127
key=G#2
loop_end=259642
loop_mode=loop_continuous
loop_start=84401
loop_xfade=21234
lovel=0
lpc=NKAwQ5m4xcObe2JDgCMywpmqo0IkZNi/1x0iwW3Ua8L02RtAOeDVQJAxvkEz2tZAliVvQXwEIsLvH7RB5VodwmRx4UAFlvBBCcOJQRBsYcGeF9jBWiikQTOQOMEghNpA
lpc_rms=-23.86
sample=Contrabassoon_sustain_MF_G#3.opus
</region>

<region>
hivel=127
key=G1
loop_end=256191
loop_mode=loop_continuous
loop_start=83279
loop_xfade=20952
lovel=0
lpc=BwBtQz0EGMRhEPtDBkJ8w/sZl0M32F3DN6SVQt/BysJ3kJNCimRPv7s3K77T1pZBkU9PwY6jMcJ1FldCBvYfwqzIqkFTcNhAYYr/wVExWEIZjS7CnGXdQX/m38HgGVpB
lpc_rms=-23.02
sample=Contrabassoon_sustain_MF_G2.opus
</region>

<region>
hivel=127
key=G2
loop_end=263448
loop_mode=loop_continuous
loop_start=85638
loop_xfade=21545
lovel=0
lpc=lpUDQ2Y9ksMEMD9DksewwlQA1UJ6yh3CCYc8QTI63sENzWlAINoiwYWmWkF536VAuzwNwM4iCj93CMK/C4UjwF8uh8DxLAFBtumUvrNmND8DssXA608CwHVFREBQItk/
lpc_rms=-24.38
sample=Contrabassoon_sustain_MF_G3.opus
</region>
</group>

<group>
amp_veltrack=0
ampeg_attack=2
ampeg_release=0.35
group_label=FF
lpc_hicc1=127
lpc_locc1=85
volume=-3

<region>
hivel=127
key=A#1
loop_end=270311
loop_mode=loop_continuous
loop_start=87869
loop_xfade=22107
lovel=0
lpc=ySuqQhh+V8P9L0lDcQT4wo2VwUKkQYDCIzAmQghFO8IDUUNC9NX0wS9/vEDDLIlAwhvgPz/KhMCFpQI/I/mTvVoT/cAfQ1hB3TAawSHf4ECFRmTAH6jXPvKNpb+0NrU/
lpc_rms=-19.59
sample=Contrabassoon_sustain_FF_A#2.opus
</region>

<region>
hivel=127
key=A#2
loop_end=254666
loop_mode=loop_continuous
loop_start=82783
loop_xfade=20827
lovel=0
lpc=lPYqQ5zNzcNWu5JDavvZwsGVGUOaxObCOXV1QhWNvMLv4XlC+KuGwVB8QcFGghdCW1REwcvA2sBzIc9AZ+GwwdsLKUCwTeVBNsy9wYK2XUE3j0zBILFPQUltOMHcWZ1A
lpc_rms=-18.37
sample=Contrabassoon_sustain_FF_A#3.opus
</region>

<region>
hivel=127
key=A1
loop_end=261452
loop_mode=loop_continuous
loop_start=84989
loop_xfade=21382
lovel=0
lpc=6oK3QgHyS8NS//dCzffAwQZx9UEC8nvBx9aCQSaFCsKxkqZBH39SwEJJ7cCRS7pAhIxuPfgpB0AhPau/teKEQHe3CMGV35hAYo9pwDiLxEAWs2zAnXWLP7PTscD6+ppA
lpc_rms=-20.94
sample=Contrabassoon_sustain_FF_A2.opus
</region>

<region>
hivel=127
key=A2
loop_end=255785
loop_mode=loop_continuous
loop_start=83147
loop_xfade=20919
lovel=0
lpc=ejkHQxRBncMVo2BDIprTwp4x5ULlUV7CDk/pQaoZFsLV32ZBNYeYwWHZdkHNgxtA8q9IQCTlwcDlgupA3xOpweICYUGJ5m3BRavxQRvtpcEAuDxBns/8v9G7VcF/WwpB
lpc_rms=-19.99
sample=Contrabassoon_sustain_FF_A3.opus
</region>

<region>
hivel=127
key=B1
loop_end=268470
loop_mode=loop_continuous
loop_start=87271
loop_xfade=21956
lovel=0
lpc=dnnVQji5ksOn4pxDhfVZw4iPF0PyHafCqb9hQqtrisLlYFJC9LaNwZ5tHcHNEhhCAmAywjHVoEG8EtY/6cBHwVTBHEFk9BfAG9y4P0W9ID/1fpE/uXshQP14G8GyLqJA
lpc_rms=-19.69
sample=Contrabassoon_sustain_FF_B2.opus
</region>

<region>
hivel=127
key=B2
loop_end=260397
loop_mode=loop_continuous
loop_start=84646
loop_xfade=21296
lovel=0
lpc=ysS0QrCHTMNN7AtDezVtwi0khkLeIx3C3BsEQmhBUMIWoARCHKOQwTGMsUHv/0fBLdK7vmRDBsA5Y0FAUsDRvqB/CsFCbVpBQSffv51FOT99vAHBLjzJP+1dw0C76lrA
lpc_rms=-24.35
sample=Contrabassoon_sustain_FF_B3.opus
</region>

<region>
hivel=127
key=C#1
loop_end=266353
loop_mode=loop_continuous
loop_start=86582
loop_xfade=21783
lovel=0
lpc=V8kBQxZph8OZ/hxDRvKWwuuW2UJiJlvCcsxVQToQFEBQfXZBb9EcwskHTUHxsovBotDWQVojUsFF6RFA1T42QAhmHkFgER7BY+tLQI2I971np+7AtdJ5QEcxycAlGNpA
lpc_rms=-18.51
sample=Contrabassoon_sustain_FF_C#2.opus
</region>

<region>
hivel=127
key=C#2
loop_end=257180
loop_mode=loop_continuous
loop_start=83601
loop_xfade=21033
lovel=0
lpc=xlXiQmhGicPgfmlDBL8Hw6OQ2EKLY1DCTW/eQS+M8sHoErxAZ/xgQQQS7cHg9AJCdQmZwNFC3L8C/YjBfcNnQWnSAMEYA/++D/pTQStsDcG0Tk1A4xkowSwAUUGxY5zA
lpc_rms=-18.89
sample=Contrabassoon_sustain_FF_C#3.opus
</region>

<region>
hivel=127
key=C#3
loop_end=258901
loop_mode=loop_continuous
loop_start=84160
loop_xfade=21173
lovel=0
lpc=2O6gQr/iOsOgEQtDjXyPwvouhELSzo3B0L9BP52XScFJhc4/shCLP0PVUcGKKJxBQQfnv668AsAbv/nAuuOaQOKLoL/1EKe/FXHTQGi82b/0ydxAYDZVwdMn5T9GnzlA
lpc_rms=-22.28
sample=Contrabassoon_sustain_FF_C#4.opus
</region>

<region>
hivel=127
key=C1
loop_end=264182
loop_mode=loop_continuous
loop_start=85877
loop_xfade=21605
lovel=0
lpc=jm06QydV2cNsf5BDU+NowkkcikLy/3vCJ5v/vr0840GJXAhBaYAgwimgFkHj4XTBZtBiQoUFV8LobMVBeQmkwZso0UH0O0rA8uTAvwwltsHDk6RByRLKwAEYVcDvSKJA
lpc_rms=-16.02
sample=Contrabassoon_sustain_FF_C2.opus
</region>

<region>
hivel=127
key=C2
loop_end=266892
loop_mode=loop_continuous
loop_start=86758
loop_xfade=21827
lovel=0
lpc=bi2vQmv7a8NdJ3FDCY8Sw8KblkLHBhzBue2qwUDEZEEwXUPBty7UQVJhMMLXciZCSzRmwUjuYMCsz8tAy4VcwUNA8kD61kg/l0AEQSkzE8GQ1Dq/jfaQQPAMdcB3n/Q/
lpc_rms=-22.77
sample=Contrabassoon_sustain_FF_C3.opus
</region>

<region>
hivel=127
key=C3
loop_end=253691
loop_mode=loop_continuous
loop_start=82466
loop_xfade=20747
lovel=0
lpc=ca9dQv3c7sIvF5NCoJrKwUos90HST2nBbSssQbrYm8HnXTJB5xAdwejxCEHmQgY/g62BQI+msMA3cUa/fkDav1JU6r8aPYNACaR3vzANHkDnLRLA/6CVQIjbCcExV5BA
lpc_rms=-27.04
sample=Contrabassoon_sustain_FF_C4.opus
</region>

<region>
hivel=127
key=D#1
loop_end=266448
loop_mode=loop_continuous
loop_start=86613
loop_xfade=21791
lovel=0
lpc=OnolQ1ip0MMfzsND0qV9w19mSEPW1d3Cghdgvye6eULaLkLC6dgCQkt3OsL6ip5B0jcgQp/AgsKFkXpCAzBDwiR99kHFLzDBZCw8wQ81CEFTkjHBiUWRQR+hi8AKrbW/
lpc_rms=-16.87
sample=Contrabassoon_sustain_FF_D#2.opus
</region>

<region>
hivel=127
key=D#2
loop_end=264573
loop_mode=loop_continuous
loop_start=86004
loop_xfade=21637
lovel=0
lpc=EUdKQlPR9cIv9tdCA06BwhdZKUKvsTPBiSh/QcdDE8LsqNBBGElqwWkzhEFuRirBJwCxQE10DcFNaJ9ADpoQv1NrfD+amAfAkznMQGvF2cAuKJFAoo0JwCsxH8AAExhA
lpc_rms=-26.22
sample=Contrabassoon_sustain_FF_D#3.opus
</region>

<region>
hivel=127
key=D1
loop_end=263866
loop_mode=loop_continuous
loop_start=85774
loop_xfade=21579
lovel=0
lpc=yXQXQ0l8uMP6MopD3kC6wur8vUI9OqfChCMpQZ78DULm4JjBnmTZQFGx88EcQqVBA/2OQA3PwMFJX0dCE84swnZKj0HSik/BcyDeQNQ0wz9uHSjB575SQWFog797UjLA
lpc_rms=-20.14
sample=Contrabassoon_sustain_FF_D2.opus
</region>

<region>
hivel=127
key=D2
loop_end=265180
loop_mode=loop_continuous
loop_start=86201
loop_xfade=21687
lovel=0
lpc=KopqQleRAsNiVtlCg2qVwjLQNELXaInA0A1YQZtesMG98+VAXTx4wHh5Kr+UEQZBVli4v9gSgr/SCBDB8vgfQYUDYsECUz5Biwa7QHOUO8EgaCpBo78KwTrF4j5Q/BNA
lpc_rms=-20.54
sample=Contrabassoon_sustain_FF_D3.opus
</region>

<region>
hikey=D#4
hivel=127
lokey=D3
loop_end=262297
loop_mode=loop_continuous
loop_start=85264
loop_xfade=21451
lovel=0
lpc=Y0vaQu2MfMO2SVRDprYGw8XytULadN3BQKAjQkNvX8LtMdNBaer7waOd8EGXVwfBg3bdQL8ERkAM+fnA0twjPwfjgMH3aYdBXEmiwBvLLUEwirDAjdgBwEf278CrnfBA
lpc_rms=-20.12
pitch_keycenter=D3
sample=Contrabassoon_sustain_FF_D4.opus
tune=-2
</region>

<region>
hivel=127
key=E1
loop_end=264003
loop_mode=loop_continuous
loop_start=85818
loop_xfade=21591
lovel=0
lpc=2iHXQjY7fcNVeipD+YggwipbZELVR1TCqHlMQSl3IkFyAOjBhBUoQqiZVMJXQAlCHekyQREkDMItQg9CsCjywfzNwEH+7ubBW8O8QTevmcBxbqBAhHl4QJEsw8EOJGRB
lpc_rms=-21.43
sample=Contrabassoon_sustain_FF_E2.opus
</region>

<region>
hivel=127
key=E2
loop_end=260651
loop_mode=loop_continuous
loop_start=84729
loop_xfade=21316
lovel=0
lpc=xRq9QtnTZMPHVk1Dht8Iw4cP0EIrb3rCxwCHQvmBl8IG+ndCnSJYwo8iNEIVVfHBp/DKQW+Yy8GoMZpBMkfDwcrKgUGJ7JK/i2DLwDJIs0G9mc7BNJe5QarFssGU6xZB
lpc_rms=-20.30
sample=Contrabassoon_sustain_FF_E3.opus
</region>

<region>
hivel=127
key=F#1
loop_end=263618
loop_mode=loop_continuous
loop_start=85693
loop_xfade=21559
lovel=0
lpc=Nu0TQ9nVuMNgpqVDeNJLw010IEP9xJfCt7qlQSYqmsHiumpBbbcZQV0FKMKcWCpCARquwQDCAz9Yt6BB4pl2wRRb0z6km3jACq12wBAwkUBZoDVA5XqHQLyC5D6nh4jA
lpc_rms=-18.90
sample=Contrabassoon_sustain_FF_F#2.opus
</region>

<region>
hivel=127
key=F#2
loop_end=253836
loop_mode=loop_continuous
loop_start=82514
loop_xfade=20759
lovel=0
lpc=RUoWQwoZtsPwNJRDqR4kw+dtFkP7PpnCFDwKQngvaMIEEj9CVuitwc0DCUAmU6tB3D3ywU3p7EFojiPCGEQmQu5q08HsAiNBazHsP7nHnMHEvA9CxhwpwqA8EkLcD2DB
lpc_rms=-18.65
sample=Contrabassoon_sustain_FF_F#3.opus
</region>

<region>
hivel=127
key=F1
loop_end=262360
loop_mode=loop_continuous
loop_start=85284
loop_xfade=21456
lovel=0
lpc=UNgKQ6CFosN0NmlDnp7Ewvqo50K7Q8PC2L19QodJFsKamLFBB+fOwUGgukErTd/BwwDjQa820sEITsZBRU2RwTWFR0FegEPBrQUnQQ9ImMBrm+LA2ZiGQbtL9sAxJmy/
lpc_rms=-19.46
sample=Contrabassoon_sustain_FF_F2.opus
</region>

<region>
hivel=127
key=F2
loop_end=263341
loop_mode=loop_continuous
loop_start=85603
loop_xfade=21537
lovel=0
lpc=TiOFQko2JMPoMRdDLe/RwsV1pUJrciDCXkQeQk25WsJII9hBc7i5wACaBEHQxsO/LGlmP8gZSsGUGMdA8zujv9iUTr6QWQNB566rPxCJA8FZRQlBekCFwTsxLUESMze/
lpc_rms=-24.84
sample=Contrabassoon_sustain_FF_F3.opus
</region>

<region>
hivel=127
key=G#1
loop_end=272147
loop_mode=loop_continuous
loop_start=88466
loop_xfade=22257
lovel=0
lpc=Ep7MQv9rh8PJM4NDml4awxrC3kLUeZvCRr8/QgcHKMLpzh1CrWgOwf7v78EX2gNCGP+Lwb5xzkD6buRArWz3wFchjcHpdeVBFJF5wSclpEAS+MHA31EDQZe6gL/fLRDA
lpc_rms=-21.66
sample=Contrabassoon_sustain_FF_G#2.opus
</region>

<region>
hivel=127
key=G#2
loop_end=276759
loop_mode=loop_continuous
loop_start=89965
loop_xfade=22634
lovel=0
lpc=RPzwQjzdh8N95jFDfhuHwpYyn0LUJfrBaYInQfL2u8EJFhTA71KYwC8Xb0G6LiBBKbCNwOmBtMCEFS3AEgbbwGfAP7/voaRAOJdxQTxLDMEHsozA9zfNvztMjj/qsuQ/
lpc_rms=-22.06
sample=Contrabassoon_sustain_FF_G#3.opus
</region>

<region>
hivel=127
key=G1
loop_end=258412
loop_mode=loop_continuous
loop_start=84001
loop_xfade=21133
lovel=0
lpc=FgAAQ5zqocN3oolDGLT4wmiCqUK3LSHCfXgYQGn4XcFFi1hBLsVEQU7yt8G8OKBBjGOUwaX9OEEkigbAiDJFQYIB7sHvtkRBypNUQC/5U78xh1tAAQA6QOXyDsEn4XVA
lpc_rms=-20.07
sample=Contrabassoon_sustain_FF_G2.opus
</region>

<region>
hivel=127
key=G2
loop_end=258338
loop_mode=loop_continuous
loop_start=83977
loop_xfade=21127
lovel=0
lpc=J00HQwoOlsPPiDdDkpOHwosLu0KIXdXBUwDCQL4uLMJuFoRB3T8BwWEvtkG5rrvAsauCv2hXXsAHyUbAe+alPtrTc8Fg7eNA487LQUxYhsFUHthAl+R4wLrW9cCX07RA
lpc_rms=-19.73
sample=Contrabassoon_sustain_FF_G3.opus
</region>
</group>